{"title":"The Raven 2012 DVDRip XviD - TWiZTED Eng-Dub","uid":7411375,"size":485466809,"categoryP":"video","categoryS":"movies","magnet":"?xt=urn:btih:f7e6d4b97234b89305e3f9a7be82d8e115d3ed5c&amp;dn=The+Raven+2012+DVDRip+XviD+-+TWiZTED+Eng-Dub&amp;tr=udp%3A%2F%2Ftracker.openbittorrent.com%3A80&amp;tr=udp%3A%2F%2Fopen.demonii.com%3A1337&amp;tr=udp%3A%2F%2Ftracker.coppersurfer.tk%3A6969&amp;tr=udp%3A%2F%2Fexodus.desync.com%3A6969","seeders":1,"leechers":0,"uploader":"tykoon123","files":-1,"time":1341399551,"description":"Poster: &lt;a href=&quot;\nhttp://imgh.us/The-Raven-2012.jpg&quot; rel=&quot;nofollow&quot; target=&quot;_NEW&quot;&gt;\nhttp://imgh.us/The-Raven-2012.jpg&lt;/a&gt;\n\nFormat : AVI\nFormat/Info : Audio Video Interleave\nFile size : 442 MiB\nDuration : 1h 45mn\nOverall bit rate : 584 Kbps\nWriting application : Lavf52.57.1\n\nVideo\nID : 0\nFormat : MPEG-4 Visual\nCodec ID : FMP4\nDuration : 1h 45mn\nBit rate : 477 Kbps\nWidth : 480 pixels\nHeight : 272 pixels\nDisplay aspect ratio : 16:9\nFrame rate : 15.000 fps\nColor space : YUV\nChroma subsampling : 4:2:0\nCompression mode : Lossy\nBits/(Pixel*Frame) : 0.244\nStream size : 362 MiB (82%)\n\nAudio\nID : 1\nFormat : MPEG Audio\nFormat version : Version 2\nFormat profile : Layer 3\nMode : Joint stereo\nMode extension : MS Stereo\nCodec ID : 55\nCodec ID/Hint : MP3\nDuration : 1h 45mn\nBit rate mode : Constant\nBit rate : 96.0 Kbps\nChannel(s) : 2 channels\nSampling rate : 22.05 KHz\nCompression mode : Lossy\nStream size : 72.7 MiB (16%)\nAlignment : Aligned on interleaves\nInterleave, duration : 26 ms (0.39 video frame)\nWriting library : LAME3.98.4\n\nSCREENS: &lt;a href=&quot;\nhttp://imgh.us/The_Raven_2012_DVDRip_XviD_-_TWiZTED_Eng-Dub-007.jpg&quot; rel=&quot;nofollow&quot; target=&quot;_NEW&quot;&gt;\nhttp://imgh.us/The_Raven_2012_DVDRip_XviD_-_TWiZTED_Eng-Dub-007.jpg&lt;/a&gt; &lt;a href=&quot;\nhttp://imgh.us/The_Raven_2012_DVDRip_XviD_-_TWiZTED_Eng-Dub-009.jpg&quot; rel=&quot;nofollow&quot; target=&quot;_NEW&quot;&gt;\nhttp://imgh.us/The_Raven_2012_DVDRip_XviD_-_TWiZTED_Eng-Dub-009.jpg&lt;/a&gt; &lt;a href=&quot;\nhttp://imgh.us/The_Raven_2012_DVDRip_XviD_-_TWiZTED_Eng-Dub-011.jpg&quot; rel=&quot;nofollow&quot; target=&quot;_NEW&quot;&gt;\nhttp://imgh.us/The_Raven_2012_DVDRip_XviD_-_TWiZTED_Eng-Dub-011.jpg&lt;/a&gt; &lt;a href=&quot;\nhttp://imgh.us/The_Raven_2012_DVDRip_XviD_-_TWiZTED_Eng-Dub-013.jpg&quot; rel=&quot;nofollow&quot; target=&quot;_NEW&quot;&gt;\nhttp://imgh.us/The_Raven_2012_DVDRip_XviD_-_TWiZTED_Eng-Dub-013.jpg&lt;/a&gt; &lt;a href=&quot;\nhttp://imgh.us/The_Raven_2012_DVDRip_XviD_-_TWiZTED_Eng-Dub-015.jpg&quot; rel=&quot;nofollow&quot; target=&quot;_NEW&quot;&gt;\nhttp://imgh.us/The_Raven_2012_DVDRip_XviD_-_TWiZTED_Eng-Dub-015.jpg&lt;/a&gt; &lt;a href=&quot;\nhttp://imgh.us/The_Raven_2012_DVDRip_XviD_-_TWiZTED_Eng-Dub-019.jpg&quot; rel=&quot;nofollow&quot; target=&quot;_NEW&quot;&gt;\nhttp://imgh.us/The_Raven_2012_DVDRip_XviD_-_TWiZTED_Eng-Dub-019.jpg&lt;/a&gt;","torrent":{"xt":"urn:btih:f7e6d4b97234b89305e3f9a7be82d8e115d3ed5c","amp;dn":"The+Raven+2012+DVDRip+XviD+-+TWiZTED+Eng-Dub","amp;tr":["udp%3A%2F%2Ftracker.openbittorrent.com%3A80","udp%3A%2F%2Fopen.demonii.com%3A1337","udp%3A%2F%2Ftracker.coppersurfer.tk%3A6969","udp%3A%2F%2Fexodus.desync.com%3A6969"],"infoHash":"f7e6d4b97234b89305e3f9a7be82d8e115d3ed5c","infoHashBuffer":{"type":"Buffer","data":[247,230,212,185,114,52,184,147,5,227,249,167,190,130,216,225,21,211,237,92]},"announce":[],"urlList":[]}}